<svg width="28" height="24" viewBox="0 0 28 24" fill="none" xmlns="http://www.w3.org/2000/svg">
<path d="M27.4665 8.13333C27.3332 3.6 23.7332 0 19.1998 0C17.7332 0 15.4665 1.06667 14.5332 2.8C14.3998 3.2 13.8665 3.2 13.7332 2.8C12.6665 1.2 10.5332 0.133333 8.93317 0.133333C4.53317 0.133333 0.799837 3.73333 0.666504 8.13333V8.4C0.666504 10.6667 1.59984 12.8 3.19984 14.4C3.19984 14.4 3.19984 14.4 3.19984 14.5333C3.33317 14.6667 9.73317 20.2667 12.6665 22.8C13.4665 23.4667 14.6665 23.4667 15.4665 22.8C18.3998 20.2667 24.6665 14.6667 24.9332 14.5333C24.9332 14.5333 24.9332 14.5333 24.9332 14.4C26.5332 12.9333 27.4665 10.8 27.4665 8.4V8.13333Z" fill="#F1351C"/>
</svg>
